<svg width="50" height="50" viewBox="0 0 50 50" fill="none" xmlns="http://www.w3.org/2000/svg">
<path d="M38.1091 33.177C38.1091 33.177 42.9191 27.9161 45.7779 26.0804C46.8276 25.4049 48.1675 25.834 48.7294 27.1532C49.2171 28.2976 49.2172 30.0539 47.2598 32.4697C47.2598 32.4697 40.2578 40.21 36.553 42.8643C36.553 42.8643 23.4938 49.1662 15.51 45.9159C14.1084 45.3438 12.6203 45.2881 11.231 45.8921C9.76146 46.5279 7.95848 47.4576 6.76061 48.5702C5.87147 49.3967 4.61802 48.9835 4.1117 47.7358L1.25904 40.6869C0.709499 39.3359 1.06145 37.667 2.06174 36.8485C5.29723 34.2101 12.503 29.0287 19.1777 28.9413C20.3509 28.9254 21.5117 29.2751 22.6108 29.8154C24.2224 30.6101 27.8098 31.7386 34.5463 31.0472C35.4107 30.9598 36.2875 31.1505 37.0408 31.7068C37.2384 31.8499 37.4237 32.0088 37.5904 32.1995C38.1893 32.8671 38.4795 33.8207 37.6089 35.0843C37.0964 35.8313 36.3925 36.3001 35.6392 36.5227C33.3793 37.1902 27.4826 38.7875 24.2038 38.3663" stroke="black" stroke-width="2" stroke-miterlimit="10"/>
<path d="M6.98285 12.1099L12.3362 30.1971" stroke="black" stroke-width="2" stroke-miterlimit="10"/>
<path d="M20.7029 7.62793L19.7767 28.9575" stroke="black" stroke-width="2" stroke-miterlimit="10"/>
<path d="M31.4096 11.0688L28.9212 31.2302" stroke="black" stroke-width="2" stroke-miterlimit="10"/>
<path d="M6.14317 12.118C7.56519 12.118 8.71797 10.6343 8.71797 8.80411C8.71797 6.97391 7.56519 5.49023 6.14317 5.49023C4.72114 5.49023 3.56836 6.97391 3.56836 8.80411C3.56836 10.6343 4.72114 12.118 6.14317 12.118Z" stroke="black" stroke-width="2" stroke-miterlimit="10"/>
<path d="M20.7028 7.62775C22.1248 7.62775 23.2776 6.14407 23.2776 4.31387C23.2776 2.48367 22.1248 1 20.7028 1C19.2808 1 18.128 2.48367 18.128 4.31387C18.128 6.14407 19.2808 7.62775 20.7028 7.62775Z" stroke="black" stroke-width="2" stroke-miterlimit="10"/>
<path d="M31.9591 10.9417C33.3812 10.9417 34.534 9.45804 34.534 7.62784C34.534 5.79764 33.3812 4.31396 31.9591 4.31396C30.5371 4.31396 29.3843 5.79764 29.3843 7.62784C29.3843 9.45804 30.5371 10.9417 31.9591 10.9417Z" stroke="black" stroke-width="2" stroke-miterlimit="10"/>
</svg>
