<svg width="50" height="49" viewBox="0 0 50 49" fill="none" xmlns="http://www.w3.org/2000/svg">
<path d="M8.69772 48.648V43.7257C8.69772 42.9918 8.37929 42.2818 7.79781 41.7389C5.65186 39.7461 1.00692 34.5851 1 31.9539C1 30.2535 2.1422 19.0843 3.02135 16.9006C4.55812 13.0821 7.88088 15.5582 6.98097 28.6903" stroke="black" stroke-width="2" stroke-miterlimit="10"/>
<path d="M11.6121 35.7785L7.59018 32.5566C6.87025 31.9839 6.41338 31.2082 6.31646 30.367C6.15725 28.9887 7.36868 27.3301 10.6914 29.0723C10.6914 29.0723 20.5143 34.3525 20.5143 40.0505V48.6481" stroke="black" stroke-width="2" stroke-miterlimit="10"/>
<path d="M41.3024 49.0001V44.0778C41.3024 43.3439 41.6208 42.6339 42.2023 42.0909C44.3482 40.0981 48.9932 34.9372 49.0001 32.306C49.0001 30.6055 47.8579 19.4364 46.9787 17.2527C45.442 13.4341 42.1192 15.9102 43.0191 29.0423" stroke="black" stroke-width="2" stroke-miterlimit="10"/>
<path d="M38.3879 36.1306L42.4099 32.9087C43.1298 32.3359 43.5867 31.5603 43.6836 30.719C43.8428 29.3408 42.6314 27.6821 39.3086 29.4243C39.3086 29.4243 29.4857 34.7046 29.4857 40.4026V49.0002" stroke="black" stroke-width="2" stroke-miterlimit="10"/>
<path d="M20.902 1H29.5896C30.2126 1 30.711 1.43555 30.711 1.96656V2.24102C30.711 2.778 31.2164 3.20759 31.8325 3.20759H33.6531C34.2761 3.20759 34.7745 3.64313 34.7745 4.17415V4.97365C34.7745 5.51063 34.2692 5.94022 33.6531 5.94022H31.8948C31.2787 5.94022 30.7803 6.36383 30.7733 6.89484V7.12754C30.7595 7.65855 30.2611 8.08216 29.645 8.08216H20.9297C20.3067 8.08216 19.8082 7.64661 19.8082 7.1156C19.8082 6.58459 19.3098 6.15501 18.6937 6.14904L16.2017 6.13114C15.5856 6.13114 15.0872 5.69559 15.0872 5.16458V4.13238C15.0872 3.60137 15.5787 3.17179 16.1878 3.16582L18.6522 3.13002C19.2475 3.11809 19.7321 2.71237 19.7529 2.19329V1.9427C19.7806 1.42362 20.279 1.00597 20.8881 1.00597L20.902 1Z" stroke="black" stroke-width="2" stroke-miterlimit="10"/>
<path d="M20.902 8.95898H29.5896C30.2126 8.95898 30.711 9.39454 30.711 9.92555V10.2C30.711 10.737 31.2164 11.1666 31.8325 11.1666H33.6531C34.2761 11.1666 34.7745 11.6021 34.7745 12.1331V12.9326C34.7745 13.4696 34.2692 13.8992 33.6531 13.8992H31.8948C31.2787 13.8992 30.7803 14.3228 30.7733 14.8538V15.0865C30.7595 15.6175 30.2611 16.0411 29.645 16.0411H20.9297C20.3067 16.0411 19.8082 15.6056 19.8082 15.0746C19.8082 14.5436 19.3098 14.114 18.6937 14.108L16.2017 14.0901C15.5856 14.0901 15.0872 13.6546 15.0872 13.1236V12.0914C15.0872 11.5603 15.5787 11.1308 16.1878 11.1248L18.6522 11.089C19.2475 11.0771 19.7321 10.6713 19.7529 10.1523V9.90168C19.7806 9.3826 20.279 8.96495 20.8881 8.96495L20.902 8.95898Z" stroke="black" stroke-width="2" stroke-miterlimit="10"/>
<path d="M20.902 16.9185H29.5896C30.2126 16.9185 30.711 17.354 30.711 17.885V18.1595C30.711 18.6965 31.2164 19.126 31.8325 19.126H33.6531C34.2761 19.126 34.7745 19.5616 34.7745 20.0926V20.8921C34.7745 21.4291 34.2692 21.8587 33.6531 21.8587H31.8948C31.2787 21.8587 30.7803 22.2823 30.7733 22.8133V23.046C30.7595 23.577 30.2611 24.0006 29.645 24.0006H20.9297C20.3067 24.0006 19.8082 23.5651 19.8082 23.0341C19.8082 22.503 19.3098 22.0735 18.6937 22.0675L16.2017 22.0496C15.5856 22.0496 15.0872 21.614 15.0872 21.083V20.0508C15.0872 19.5198 15.5787 19.0902 16.1878 19.0843L18.6522 19.0485C19.2475 19.0365 19.7321 18.6308 19.7529 18.1117V17.8612C19.7806 17.3421 20.279 16.9244 20.8881 16.9244L20.902 16.9185Z" stroke="black" stroke-width="2" stroke-miterlimit="10"/>
<path d="M20.902 24.8838H29.5896C30.2126 24.8838 30.711 25.3193 30.711 25.8504V26.1248C30.711 26.6618 31.2164 27.0914 31.8325 27.0914H33.6531C34.2761 27.0914 34.7745 27.5269 34.7745 28.0579V28.8574C34.7745 29.3944 34.2692 29.824 33.6531 29.824H31.8948C31.2787 29.824 30.7803 30.2476 30.7733 30.7786V31.0113C30.7595 31.5423 30.2611 31.966 29.645 31.966H20.9297C20.3067 31.966 19.8082 31.5304 19.8082 30.9994C19.8082 30.4684 19.3098 30.0388 18.6937 30.0328L16.2017 30.0149C15.5856 30.0149 15.0872 29.5794 15.0872 29.0484V28.0162C15.0872 27.4852 15.5787 27.0556 16.1878 27.0496L18.6522 27.0138C19.2475 27.0019 19.7321 26.5962 19.7529 26.0771V25.8265C19.7806 25.3074 20.279 24.8898 20.8881 24.8898L20.902 24.8838Z" stroke="black" stroke-width="2" stroke-miterlimit="10"/>
</svg>
