<svg width="49" height="50" viewBox="0 0 49 50" fill="none" xmlns="http://www.w3.org/2000/svg">
<path d="M19.7646 17.4278C18.2736 16.299 17.1129 14.9556 16.4267 13.4711C15.7406 11.9867 14.8849 10.312 14.6731 8.3981C14.5545 7.33687 14.6138 6.43514 13.5888 5.46592C12.7755 4.693 11.3438 4.7114 10.2001 5.98733C9.68336 6.56396 9.81044 7.3062 9.81044 7.99324C9.81044 10.1648 10.251 11.956 11.1998 14.3361C11.8775 16.0353 12.7331 16.8818 13.1398 17.3541C13.4109 17.6731 13.9361 18.2866 14.3682 18.6485C18.1719 21.8322 17.5535 22.7646 17.7907 26.0525L17.0367 46.2282C16.9943 47.2955 17.7822 48.3384 19.1377 48.7616C19.934 49.0131 20.8743 49.099 21.8062 48.7187C22.7804 48.3138 23.3057 47.5102 23.2803 46.6944C23.204 44.3327 23.0346 37.9162 23.3142 34.7264C23.365 34.1805 24.263 32.9291 26.0843 33.8676C26.8044 34.2418 27.2111 34.8614 27.2111 35.5055V46.3447C27.2111 47.4857 28.1684 48.5653 29.6763 48.9027C30.4388 49.0745 31.2944 49.0499 32.0822 48.5776C32.7939 48.1482 33.1242 47.4796 33.1073 46.8171C32.9887 43.3635 32.5566 29.2608 33.1327 22.6051C33.3869 19.6545 38.1903 20.544 40.4013 12.0173L40.6047 8.74162C40.6047 7.81535 40.3251 5.85238 39.317 5.27576C38.3089 4.69914 36.6484 4.15932 35.5895 5.7481C35.2845 6.20817 35.1659 8.3981 35.2167 8.90111C35.42 10.8886 33.946 14.6735 32.8532 15.8144C32.8532 15.8144 31.3537 18.9491 26.9315 18.5442L22.2806 18.3172C21.3742 18.2743 20.527 17.986 19.9001 17.5136L19.7646 17.4155V17.4278Z" stroke="black" stroke-width="2" stroke-miterlimit="10"/>
<path d="M17.6721 4.50293H6.92163" stroke="black" stroke-width="2" stroke-miterlimit="10"/>
<path d="M23.2041 4.50293H21.9757" stroke="black" stroke-width="2" stroke-miterlimit="10"/>
<path d="M2.61808 4.50293H1" stroke="black" stroke-width="2" stroke-miterlimit="10"/>
<path d="M6.9216 1H2.61804V8.31206H6.9216V1Z" stroke="black" stroke-width="2" stroke-miterlimit="10"/>
<path d="M21.9756 1H17.672V8.31206H21.9756V1Z" stroke="black" stroke-width="2" stroke-miterlimit="10"/>
<path d="M43.4595 4.50293H32.7175" stroke="black" stroke-width="2" stroke-miterlimit="10"/>
<path d="M49 4.50293H47.7716" stroke="black" stroke-width="2" stroke-miterlimit="10"/>
<path d="M28.4056 4.50293H26.796" stroke="black" stroke-width="2" stroke-miterlimit="10"/>
<path d="M32.7091 1H28.4055V8.31206H32.7091V1Z" stroke="black" stroke-width="2" stroke-miterlimit="10"/>
<path d="M47.7631 1H43.4595V8.31206H47.7631V1Z" stroke="black" stroke-width="2" stroke-miterlimit="10"/>
<path d="M25.1948 16.8756C27.6558 16.8756 29.6509 15.431 29.6509 13.649C29.6509 11.867 27.6558 10.4224 25.1948 10.4224C22.7338 10.4224 20.7388 11.867 20.7388 13.649C20.7388 15.431 22.7338 16.8756 25.1948 16.8756Z" stroke="black" stroke-width="2" stroke-miterlimit="10"/>
</svg>
