<svg width="43" height="43" viewBox="0 0 43 43" fill="none" xmlns="http://www.w3.org/2000/svg">
<g clip-path="url(#clip0_1_356)">
<path d="M43 0H0V43H43V0Z" fill="white"/>
<path d="M20.5654 31.1553C19.1726 33.4839 19.6382 37.0895 20.7027 38.2929C22.065 39.8329 24.8625 39.3553 26.3238 38.7559C29.7413 37.0959 32.8925 29.7417 33.1441 28.6284C33.7894 25.7728 33.8081 21.9572 33.3464 18.5523C33.15 17.1043 32.0897 17.3346 31.6869 18.7393C30.6118 22.4888 29.2735 26.564 28.1851 28.2903C27.7298 29.0126 26.9898 29.3883 26.5234 29.3714C25.9464 29.3505 26.343 28.5474 26.6386 28.0515C27.1466 27.1987 27.3504 26.2951 27.5702 25.0811C27.6655 24.5545 27.6834 24.0038 27.4997 23.5012C27.3697 23.1458 27.2203 22.9041 27.0667 22.7471C26.5127 22.1814 25.9607 23.1933 25.5831 23.8892C24.5159 25.8563 21.7664 29.2898 20.5654 31.1553Z" fill="#003478"/>
<path d="M22.2152 11.5463C23.5457 9.22421 22.9857 5.7007 21.8903 4.54968C20.4886 3.07672 17.706 3.62209 16.2615 4.25008C12.8904 5.9722 9.96205 13.3301 9.71282 14.3705C9.10871 16.8921 9.22464 20.9319 9.77547 24.2586C10.0108 25.6795 11.0633 25.4178 11.4299 24.025C12.4055 20.3193 13.6351 16.2881 14.6767 14.5658C15.1072 13.854 15.8237 13.466 16.2907 13.4598C16.8734 13.4521 16.5058 14.267 16.2189 14.7742C15.7447 15.6125 15.565 16.4928 15.3802 17.6669C15.2954 18.2053 15.2907 18.7675 15.4987 19.2713C15.6302 19.5899 15.7759 19.8101 15.9239 19.9561C16.4952 20.5197 17.0371 19.4901 17.4089 18.779C18.4356 16.8151 21.0704 13.399 22.2152 11.5463Z" fill="#B5092C"/>
<path d="M16.9779 30.9238C17.6032 31.1904 18.3262 30.8997 18.5928 30.2744C18.8594 29.6491 18.5686 28.9261 17.9433 28.6595C17.318 28.3929 16.595 28.6836 16.3284 29.3089C16.0618 29.9342 16.3526 30.6572 16.9779 30.9238Z" fill="#E4E4E4"/>
<path d="M18.9586 28.7262C19.709 29.0461 20.5766 28.6972 20.8965 27.9468C21.2164 27.1965 20.8675 26.3289 20.1172 26.009C19.3668 25.689 18.4992 26.038 18.1793 26.7883C17.8594 27.5386 18.2083 28.4062 18.9586 28.7262Z" fill="#E4E4E4"/>
<path d="M28.1425 11.1002C27.7653 10.9449 27.3337 11.1247 27.1784 11.5019C27.0231 11.879 27.203 12.3106 27.5801 12.4659C27.9572 12.6212 28.3888 12.4413 28.5441 12.0642C28.6994 11.6871 28.5196 11.2555 28.1425 11.1002Z" fill="#E4E4E4"/>
<path d="M15.4617 30.7082C15.0866 30.5482 14.6528 30.7227 14.4928 31.0979C14.3328 31.473 14.5073 31.9068 14.8825 32.0668C15.2576 32.2268 15.6914 32.0523 15.8514 31.6771C16.0114 31.302 15.8369 30.8682 15.4617 30.7082Z" fill="#E4E4E4"/>
<path d="M25.8351 11.9901C25.2066 11.7313 24.4872 12.031 24.2284 12.6595C23.9696 13.2881 24.2693 14.0074 24.8978 14.2662C25.5264 14.525 26.2457 14.2253 26.5045 13.5968C26.7633 12.9683 26.4636 12.2489 25.8351 11.9901Z" fill="#E4E4E4"/>
<path d="M23.5493 13.8024C22.7951 13.4919 21.9319 13.8515 21.6213 14.6058C21.3107 15.36 21.6703 16.2232 22.4246 16.5338C23.1788 16.8444 24.0421 16.4848 24.3526 15.7305C24.6632 14.9763 24.3036 14.113 23.5493 13.8024Z" fill="#E4E4E4"/>
<path d="M20.369 25.2724C21.4501 25.391 22.4227 24.6108 22.5413 23.5297C22.6599 22.4485 21.8797 21.476 20.7986 21.3574C19.7175 21.2387 18.7449 22.019 18.6263 23.1001C18.5077 24.1812 19.2879 25.1538 20.369 25.2724Z" fill="#E4E4E4"/>
<path d="M21.4683 21.0458C22.5494 21.1644 23.5219 20.3842 23.6405 19.3031C23.7592 18.222 22.9789 17.2494 21.8978 17.1308C20.8167 17.0122 19.8441 17.7924 19.7255 18.8735C19.6069 19.9546 20.3872 20.9272 21.4683 21.0458Z" fill="#E4E4E4"/>
</g>
<defs>
<clipPath id="clip0_1_356">
<rect width="43" height="43" fill="white"/>
</clipPath>
</defs>
</svg>
