<svg width="17" height="23" viewBox="0 0 17 23" fill="none" xmlns="http://www.w3.org/2000/svg">
<path d="M12.6783 0.9375H4.01164C2.36822 0.9375 1.03247 2.27325 1.03247 3.91667V19.0833C1.03247 20.7268 2.36822 22.0625 4.01164 22.0625H12.6783C14.3218 22.0625 15.6575 20.7268 15.6575 19.0833V3.91667C15.6575 2.27325 14.3218 0.9375 12.6783 0.9375ZM14.0325 19.0833C14.0325 19.8298 13.4248 20.4375 12.6783 20.4375H4.01164C3.26522 20.4375 2.65747 19.8298 2.65747 19.0833V3.91667C2.65747 3.17025 3.26522 2.5625 4.01164 2.5625H12.6783C13.4248 2.5625 14.0325 3.17025 14.0325 3.91667V19.0833ZM10.2408 5C10.2408 5.4485 9.8768 5.8125 9.4283 5.8125H7.26164C6.81314 5.8125 6.44914 5.4485 6.44914 5C6.44914 4.5515 6.81314 4.1875 7.26164 4.1875H9.4283C9.8768 4.1875 10.2408 4.5515 10.2408 5Z" fill="#050B20"/>
</svg>
