<svg width="51" height="50" viewBox="0 0 51 50" fill="none" xmlns="http://www.w3.org/2000/svg">
<path d="M1.3999 46.024C1.3999 46.024 2.9332 15.8424 6.63001 11.9261C8.51414 9.93856 20.4557 8.94479 20.4557 1" stroke="black" stroke-width="2" stroke-miterlimit="10"/>
<path d="M8.2478 46.024C8.2478 46.024 11.2754 29.4612 13.2375 29.2422" stroke="black" stroke-width="2" stroke-miterlimit="10"/>
<path d="M11.6003 19.2085C11.6003 19.2085 16.2977 39.2922 11.6003 49.0001" stroke="black" stroke-width="2" stroke-miterlimit="10"/>
<path d="M49.3999 46.024C49.3999 46.024 47.8666 15.8424 44.1698 11.9261C42.2856 9.93856 30.3441 8.94479 30.3441 1" stroke="black" stroke-width="2" stroke-miterlimit="10"/>
<path d="M42.5586 46.024C42.5586 46.024 39.5309 29.4612 37.5688 29.2422" stroke="black" stroke-width="2" stroke-miterlimit="10"/>
<path d="M39.1995 19.2085C39.1995 19.2085 34.5022 39.2922 39.1995 49.0001" stroke="black" stroke-width="2" stroke-miterlimit="10"/>
<path d="M25.3999 17.5201C26.5733 17.5201 27.5244 16.7379 27.5244 15.773C27.5244 14.8081 26.5733 14.0259 25.3999 14.0259C24.2266 14.0259 23.2754 14.8081 23.2754 15.773C23.2754 16.7379 24.2266 17.5201 25.3999 17.5201Z" stroke="black" stroke-width="2" stroke-miterlimit="10"/>
<path d="M25.3999 27.351C27.2945 27.351 28.8303 26.088 28.8303 24.53C28.8303 22.972 27.2945 21.709 25.3999 21.709C23.5053 21.709 21.9695 22.972 21.9695 24.53C21.9695 26.088 23.5053 27.351 25.3999 27.351Z" stroke="black" stroke-width="2" stroke-miterlimit="10"/>
<path d="M25.3999 37.406C27.6174 37.406 29.4151 35.9277 29.4151 34.1041C29.4151 32.2805 27.6174 30.8022 25.3999 30.8022C23.1824 30.8022 21.3848 32.2805 21.3848 34.1041C21.3848 35.9277 23.1824 37.406 25.3999 37.406Z" stroke="black" stroke-width="2" stroke-miterlimit="10"/>
<path d="M25.9456 49.0001C28.9741 49.0001 31.4291 46.9812 31.4291 44.4908C31.4291 42.0004 28.9741 39.9814 25.9456 39.9814C22.9172 39.9814 20.4622 42.0004 20.4622 44.4908C20.4622 46.9812 22.9172 49.0001 25.9456 49.0001Z" stroke="black" stroke-width="2" stroke-miterlimit="10"/>
</svg>
