<svg width="50" height="50" viewBox="0 0 50 50" fill="none" xmlns="http://www.w3.org/2000/svg">
<path d="M35.952 13.0841C38.5338 13.0841 40.6267 10.379 40.6267 7.04206C40.6267 3.70512 38.5338 1 35.952 1C33.3702 1 31.2773 3.70512 31.2773 7.04206C31.2773 10.379 33.3702 13.0841 35.952 13.0841Z" stroke="black" stroke-width="2" stroke-miterlimit="10"/>
<path d="M40.6267 14.549C40.6267 14.549 24.5797 19.6799 22.3779 22.6168C22.0742 23.0233 21.9549 23.5771 21.9983 23.9766C22.1664 25.5257 26.1415 25.0911 27.2316 24.6004C27.3183 24.5654 29.0158 23.9906 29.108 23.9766C30.9735 23.7103 39.6559 17.8855 40.567 31.3504C40.6375 32.3738 40.0193 33.264 39.2275 33.285C34.8673 33.3902 21.9006 34.035 22.7629 37.8832C22.8985 38.493 23.3378 38.9065 23.8204 39.0117C25.6534 39.4182 31.9659 40.4486 43.6853 38.9766C44.3632 38.8925 45.014 38.549 45.54 37.9883C47.0856 36.3481 50.2039 32.9486 47.5682 24.8388C47.5682 24.8388 46.3535 20.1004 46.3372 20.0303C45.4695 16.736 44.5313 13.1191 40.6321 14.542L40.6267 14.549Z" stroke="black" stroke-width="2" stroke-miterlimit="10"/>
<path d="M14.997 27.075L21.9983 23.9839" stroke="black" stroke-width="2" stroke-miterlimit="10"/>
<path d="M10.1488 30.4883V49H12.9688V44.0864H46.3915V49H49V39.4953H46.1746" stroke="black" stroke-width="2" stroke-miterlimit="10"/>
<path d="M20.5667 39.4953H13.1858V30.4883" stroke="black" stroke-width="2" stroke-miterlimit="10"/>
<path d="M8.92317 28.8269C8.92317 28.8269 2.94689 27.362 4.68229 36.6143" stroke="black" stroke-width="2" stroke-miterlimit="10"/>
<path d="M4.6823 46.1334C6.71597 46.1334 8.36459 44.0026 8.36459 41.3741C8.36459 38.7456 6.71597 36.6147 4.6823 36.6147C2.64862 36.6147 1 38.7456 1 41.3741C1 44.0026 2.64862 46.1334 4.6823 46.1334Z" stroke="black" stroke-width="2" stroke-miterlimit="10"/>
<path d="M11.6836 30.7406C13.5166 30.7406 15.0025 28.82 15.0025 26.4509C15.0025 24.0817 13.5166 22.1611 11.6836 22.1611C9.85057 22.1611 8.36462 24.0817 8.36462 26.4509C8.36462 28.82 9.85057 30.7406 11.6836 30.7406Z" stroke="black" stroke-width="2" stroke-miterlimit="10"/>
</svg>
