<svg width="51" height="54" viewBox="0 0 51 54" fill="none" xmlns="http://www.w3.org/2000/svg">
<path d="M46.0385 9.1597C44.7184 10.9 42.0446 16.0026 38.8808 16.6287C38.3208 16.7329 36.7025 15.9961 36.1369 15.7823C35.3068 15.4777 33.5108 15.1668 30.3621 16.1221C29.9596 16.2441 29.5316 16.222 29.1258 15.9767C29.0204 15.9159 28.9215 15.842 28.8292 15.755C28.4887 15.4405 28.2715 14.9273 28.5874 14.1538C28.7703 13.7027 29.0659 13.3729 29.4032 13.1852C30.4232 12.6211 33.0944 11.233 34.6826 11.1766" stroke="black" stroke-width="2.5" stroke-miterlimit="10"/>
<path d="M28.9327 13.3619C28.9327 13.3619 26.5017 16.3064 25.0868 17.3271C24.5672 17.6968 23.931 17.4617 23.6851 16.7146C23.4847 16.1014 23.5078 15.185 24.3499 13.951C24.4462 13.8099 24.5521 13.6762 24.6612 13.5446C25.284 12.7936 27.5646 10.0746 29.1999 8.53153C29.6376 8.11857 30.1402 7.78708 30.6852 7.532C32.5325 6.66734 37.1304 4.82051 40.0959 6.25955C40.7591 6.58174 41.4812 6.61496 42.1614 6.27972C42.8836 5.92272 46.1831 2.4963 46.7836 1.87556" stroke="black" stroke-width="2.5" stroke-miterlimit="10"/>
<path d="M49.2312 22.5293L37.9999 18.1602" stroke="black" stroke-width="2.5" stroke-miterlimit="10" stroke-linecap="round"/>
<path d="M22.4999 19.66C22.4999 19.66 21.0161 21.9409 18.0276 18.3628C17.5566 17.8029 17.1668 17.1092 16.8176 16.3668C15.438 13.4769 11.0167 8.05377 4.58342 15.3356C4.1039 15.8784 3.70198 16.4912 3.4154 17.1563C2.05235 20.32 1.58169 24.2336 2.41101 27.8192C3.24747 31.4459 5.42389 34.9632 10.6944 34.8415C11.1898 34.8415 11.677 34.9145 12.1643 35.0605C14.0665 35.633 17.7582 37.067 18.3988 32.9191C18.4857 32.3564 18.452 31.7823 18.3914 31.2163L18.0276 27.8192" stroke="black" stroke-width="2.5" stroke-miterlimit="10" stroke-linecap="round"/>
<path d="M23.1507 32.1602C23.1507 32.1602 21.4072 45.1243 29.7768 45.644C30.9828 45.7189 32.2058 45.6908 33.3549 46.0645C35.4452 46.7441 39.1408 48.234 42.9999 51.1602" stroke="black" stroke-width="2.5" stroke-miterlimit="10" stroke-linecap="round"/>
<path d="M30.9614 34.0244L44.5316 45.2212" stroke="black" stroke-width="2.5" stroke-miterlimit="10" stroke-linecap="round"/>
<path d="M4.99989 36.1602C4.99989 36.1602 -1.50012 44.9269 7.52346 44.9025L22.6122 44.9269" stroke="black" stroke-width="2.5" stroke-miterlimit="10" stroke-linecap="round"/>
</svg>
