<svg width="100" height="100" viewBox="0 0 100 100" fill="none" xmlns="http://www.w3.org/2000/svg">
<rect width="100" height="100" fill="#D9D5D2"/>
<path d="M47.8264 72.4548C44.5873 77.8701 45.6701 86.2551 48.1458 89.0537C51.3139 92.6352 57.8196 91.5244 61.218 90.1306C69.1656 86.27 76.4941 69.1673 77.0791 66.5783C78.5798 59.9373 78.6234 51.0637 77.5496 43.1455C77.0929 39.7779 74.627 40.3135 73.6903 43.5803C71.19 52.3001 68.0777 61.7774 65.5467 65.792C64.4877 67.4718 62.7668 68.3454 61.6822 68.3061C60.3404 68.2575 61.2627 66.3899 61.95 65.2365C63.1316 63.2534 63.6055 61.152 64.1166 58.3287C64.3383 57.1041 64.3798 55.8233 63.9526 54.6544C63.6504 53.8279 63.303 53.2659 62.9456 52.9009C61.6574 51.5852 60.3735 53.9385 59.4955 55.5569C57.0136 60.1315 50.6193 68.1164 47.8264 72.4548Z" fill="#003478"/>
<path d="M51.6631 26.8516C54.7573 21.4514 53.455 13.2572 50.9077 10.5804C47.6479 7.15492 41.1766 8.42321 37.8175 9.88366C29.9776 13.8886 23.1675 30.9999 22.5879 33.4195C21.183 39.2837 21.4526 48.6785 22.7336 56.415C23.2808 59.7195 25.7285 59.111 26.5812 55.8719C28.85 47.2539 31.7094 37.879 34.1319 33.8736C35.1329 32.2184 36.7992 31.3161 37.8853 31.3017C39.2405 31.2837 38.3856 33.1788 37.7183 34.3584C36.6155 36.3079 36.1976 38.355 35.7678 41.0855C35.5707 42.3376 35.5596 43.6452 36.0434 44.8168C36.3492 45.5576 36.6881 46.0698 37.0323 46.4093C38.3608 47.7199 39.6212 45.3256 40.4858 43.6718C42.8734 39.1046 49.0008 31.1602 51.6631 26.8516Z" fill="#B5092C"/>
<circle cx="40.6062" cy="69.2827" r="2.86229" transform="rotate(23.0918 40.6062 69.2827)" fill="white"/>
<circle cx="45.437" cy="63.6455" r="3.43475" transform="rotate(23.0918 45.437 63.6455)" fill="white"/>
<circle cx="64.7936" cy="27.4022" r="1.71738" transform="rotate(-157.619 64.7936 27.4022)" fill="white"/>
<circle cx="35.284" cy="72.9941" r="1.71738" transform="rotate(-156.908 35.284 72.9941)" fill="white"/>
<circle cx="58.9917" cy="30.531" r="2.86229" transform="rotate(-157.619 58.9917 30.531)" fill="white"/>
<circle cx="53.458" cy="35.2751" r="3.43475" transform="rotate(-157.619 53.458 35.2751)" fill="white"/>
<circle cx="47.8692" cy="54.2202" r="4.57967" transform="rotate(6.26156 47.8692 54.2202)" fill="white"/>
<circle cx="50.4258" cy="44.3915" r="4.57967" transform="rotate(6.26156 50.4258 44.3915)" fill="white"/>
</svg>
